<?xml version="1.0" encoding="UTF-8"?>
<svg width="100px" height="54px" viewBox="0 0 100 54" version="1.1" xmlns="http://www.w3.org/2000/svg" xmlns:xlink="http://www.w3.org/1999/xlink">
    <!-- Generator: Sketch 46.2 (44496) - http://www.bohemiancoding.com/sketch -->
    <title>logo</title>
    <desc>Created with Sketch.</desc>
    <defs></defs>
    <g id="Page-1" stroke="none" stroke-width="1" fill="none" fill-rule="evenodd">
        <g id="1.-Screen" transform="translate(-505.000000, -61.000000)">
            <g id="logo" transform="translate(505.000000, 61.000000)">
                <path d="M23.4253517,11.4825539 C23.1242875,10.425531 22.9744345,9.74617882 22.9744345,9.44313223 C22.9744345,7.78274628 25.2661441,6.9505057 29.8509215,6.9505057 L33.5709883,6.9505057 C37.2521205,6.9505057 39.3568534,7.74361414 39.8833762,9.32983102 L46.5344046,30.2905541 C46.6838049,30.8961923 47.7354922,35.4655525 49.6908249,44 L50.1417421,44 C51.4944936,37.354361 52.546181,32.7831806 53.2981624,30.2905541 L59.9491908,9.32983102 C60.4739027,7.74361414 62.5790883,6.9505057 66.2620314,6.9505057 L69.0802638,6.9505057 C73.5894356,6.9505057 75.8440215,7.78274628 75.8440215,9.44313223 C75.8440215,9.97278124 75.7312922,10.6521334 75.5058336,11.4825539 L67.426448,35.2812675 L91,0 L8,0 L31.6120338,35.5979648 L23.4253517,11.4825539 Z" id="black" fill="#000000" fill-rule="nonzero"></path>
                <path d="M75.9344947,10 C75.884591,10.423173 75.7870727,10.9085506 75.6327832,11.4688461 L61,54 L100,10 L75.9344947,10 Z" id="red" fill="#E30613" opacity="0.9"></path>
                <path d="M23.6302252,11.106765 C23.619264,11.0695108 23.6101296,11.0363455 23.6000817,11 L0,11 L38,53 L23.6302252,11.106765 Z" id="yellow" fill="#F8D200" opacity="0.9"></path>
            </g>
        </g>
    </g>
</svg>